P3
6 5
255
23 88 115
76 120 131
118 133 127
132 141 119
110 119 110
84 96 95
21 56 73
62 99 113
93 110 117
124 122 119
113 119 107
106 101 81
40 70 89
130 109 99
176 142 118
146 142 137
80 90 90
149 132 93
99 88 80
126 103 92
183 145 109
222 194 100
225 192 125
90 94 88
61 58 56
143 115 99
211 186 97
223 201 113
224 207 122
186 154 82
