P3
40 5
255
20 75 103
22 82 109
23 85 112
23 87 114
23 88 115
29 93 119
40 99 123
42 100 123
43 101 121
52 105 125
64 112 128
74 118 131
76 120 131
79 123 132
87 128 135
101 136 138
119 146 141
103 134 136
102 134 136
94 129 133
81 122 130
87 124 130
96 126 129
121 137 132
127 138 135
118 133 127
108 128 121
230 190 96
231 192 95
221 182 84
215 176 78
227 189 88
231 195 96
226 188 88
227 190 90
225 188 89
207 169 73
195 156 66
186 149 65
181 145 64
18 45 60
20 73 98
23 58 76
21 81 109
24 85 113
32 90 116
40 95 119
45 98 121
48 99 120
50 100 121
59 106 123
70 113 127
73 115 129
76 118 130
83 123 132
86 123 132
200 166 139
102 131 135
102 132 135
87 121 130
81 118 128
77 115 126
95 122 127
110 128 129
115 129 130
110 125 127
103 121 118
235 202 112
239 210 123
237 206 114
232 200 104
234 204 109
234 204 108
229 199 104
233 205 113
234 207 115
222 191 92
206 171 75
199 165 68
186 152 63
128 122 111
141 132 115
27 54 70
138 120 94
115 119 124
152 138 121
153 132 104
165 141 112
166 142 113
172 146 118
182 154 124
68 108 123
66 106 122
68 108 122
71 111 122
70 101 111
200 165 135
78 109 118
84 116 126
78 112 121
83 116 126
82 115 125
92 118 123
96 118 123
95 117 123
93 114 120
98 116 118
232 204 116
237 212 125
234 206 114
234 207 117
230 202 106
234 208 115
226 199 104
230 203 108
230 205 112
220 192 95
216 185 84
201 169 70
194 162 67
131 116 89
124 109 86
147 128 98
156 135 104
166 143 109
169 146 112
174 150 116
178 153 119
151 129 106
135 116 101
122 108 101
47 64 65
48 58 53
63 76 71
81 103 108
74 101 110
186 150 119
69 99 109
68 97 107
79 108 115
84 111 116
83 109 114
84 107 112
88 109 114
91 112 117
83 107 116
78 103 113
231 205 112
234 209 117
228 203 110
229 206 116
227 205 115
230 210 123
226 205 113
222 198 100
221 194 92
218 188 84
208 177 71
199 167 63
189 155 58
132 116 91
125 110 86
132 116 90
146 127 99
154 133 104
148 126 101
149 127 102
131 113 97
112 100 93
120 106 98
132 112 101
54 88 104
88 106 117
80 95 102
83 105 113
102 115 124
171 137 111
68 96 107
68 95 105
80 103 109
81 105 111
80 103 109
84 104 110
86 105 110
87 105 109
72 96 105
68 94 104
220 199 111
219 200 113
224 207 122
218 202 117
221 204 119
228 212 128
221 203 113
213 193 100
216 194 97
213 188 87
195 169 69
189 159 61
179 148 55
